<?xml version="1.0" standalone="no"?>
<!DOCTYPE svg PUBLIC "-//W3C//DTD SVG 20010904//EN"
 "http://www.w3.org/TR/2001/REC-SVG-20010904/DTD/svg10.dtd">
<svg version="1.0" xmlns="http://www.w3.org/2000/svg"
 width="48.000000pt" height="48.000000pt" viewBox="0 0 48.000000 48.000000"
 preserveAspectRatio="xMidYMid meet">

<g transform="translate(0.000000,48.000000) scale(0.100000,-0.100000)"
fill="#000000" stroke="none">
<path d="M20 455 c0 -8 9 -15 19 -15 42 0 61 -31 77 -123 31 -182 51 -201 196
-195 106 5 119 15 144 104 13 51 15 70 6 89 l-12 25 -150 0 -150 0 -11 45 c-7
27 -22 54 -37 65 -30 24 -82 27 -82 5z m408 -188 c-9 -76 -27 -101 -82 -111
-27 -5 -70 -5 -99 0 -59 10 -76 33 -85 111 l-5 43 138 0 138 0 -5 -43z"/>
<path d="M146 88 c-21 -30 -20 -44 4 -68 24 -24 53 -26 74 -4 19 18 21 65 4
82 -20 20 -65 14 -82 -10z m62 -31 c2 -12 -3 -17 -17 -17 -12 0 -21 6 -21 13
0 31 32 34 38 4z"/>
<path d="M366 94 c-37 -37 -1 -103 49 -90 14 4 31 17 37 31 23 52 -46 100 -86
59z m52 -37 c2 -10 -3 -17 -12 -17 -18 0 -29 16 -21 31 9 14 29 6 33 -14z"/>
</g>
</svg>
